<?xml version="1.0" encoding="UTF-8"?>
<!-- Generator: visioncortex VTracer 0.6.3 -->
<svg version="1.1" xmlns="http://www.w3.org/2000/svg" width="1280" height="440">
<path d="M0 0 C1.03 -0.01 2.06 -0.02 3.12 -0.03 C45.97 -0.35 45.97 -0.35 65.2 4.24 C66.14 4.46 67.09 4.68 68.06 4.9 C110.19 14.94 148.12 35.92 178.2 67.24 C179.08 68.1 179.97 68.97 180.88 69.86 C188.2 77.37 188.2 77.37 188.2 80.24 C188.86 80.24 189.52 80.24 190.2 80.24 C191.79 82.23 193.25 84.21 194.7 86.3 C195.14 86.93 195.58 87.56 196.03 88.21 C196.96 89.55 197.89 90.88 198.81 92.22 C200.13 94.14 201.46 96.04 202.8 97.95 C208.84 106.65 213.78 115.61 218.2 125.24 C218.57 126.04 218.94 126.83 219.32 127.65 C233.57 158.6 240.85 193.08 239.2 227.24 C239.13 228.53 239.13 228.53 239.07 229.84 C236.39 280.89 218.1 329.24 183.26 366.98 C181.43 368.98 179.68 371.03 177.95 373.11 C169.81 382.35 160.4 390.06 150.63 397.49 C149.76 398.16 148.89 398.83 148 399.51 C147.18 400.13 146.35 400.74 145.5 401.38 C144.77 401.93 144.04 402.48 143.28 403.05 C141.2 404.24 141.2 404.24 137.2 404.24 C136.99 404.83 136.78 405.42 136.56 406.02 C134.67 409.09 132.51 410.01 129.32 411.66 C128.44 412.13 128.44 412.13 127.54 412.6 C125.62 413.6 123.69 414.58 121.76 415.55 C121.1 415.89 120.44 416.22 119.77 416.57 C109.18 421.96 98.59 426.77 87.2 430.24 C86.12 430.57 86.12 430.57 85.03 430.91 C79.47 432.61 73.86 433.97 68.2 435.24 C67.2 435.47 66.21 435.7 65.19 435.94 C33.73 443.02 0.55 442.75 -30.8 435.24 C-31.91 434.98 -33.01 434.71 -34.15 434.44 C-55.24 429.27 -73.99 420.99 -93.15 410.88 C-94.39 410.22 -94.39 410.22 -95.65 409.55 C-97.72 408.29 -99.15 406.98 -100.8 405.24 C-102.12 404.49 -103.45 403.78 -104.8 403.11 C-110.76 399.89 -115.67 395.61 -120.8 391.24 C-121.86 390.37 -122.92 389.5 -123.97 388.63 C-135.47 379.15 -145.57 368.96 -154.8 357.24 C-155.46 356.45 -156.11 355.67 -156.79 354.86 C-173.09 335.13 -184.5 312.34 -192.8 288.24 C-193.09 287.42 -193.37 286.61 -193.66 285.77 C-195.21 281.23 -196.25 277.04 -196.8 272.24 C-197.12 270.57 -197.45 268.9 -197.8 267.24 C-198.13 267.24 -198.46 267.24 -198.8 267.24 C-198.87 266.6 -198.93 265.96 -198.99 265.3 C-199.07 264.48 -199.16 263.65 -199.24 262.8 C-199.32 261.98 -199.4 261.15 -199.49 260.3 C-199.59 258.25 -199.59 258.25 -200.8 257.24 C-201.87 248.7 -201.95 240.1 -201.94 231.51 C-201.94 230.35 -201.94 229.19 -201.94 228 C-201.94 225.58 -201.94 223.16 -201.94 220.74 C-201.93 217.05 -201.94 213.36 -201.94 209.68 C-201.94 207.31 -201.94 204.94 -201.94 202.57 C-201.94 201.48 -201.94 200.39 -201.94 199.27 C-201.91 188.04 -200.48 178.04 -197.38 167.26 C-196.81 165.27 -196.28 163.27 -195.75 161.27 C-187.73 131.76 -173.1 98.87 -150.8 77.24 C-148.64 75.22 -148.64 75.22 -146.93 72.24 C-144.75 69.16 -143.97 68.81 -140.8 67.24 C-139.24 65.7 -139.24 65.7 -137.87 63.93 C-134.21 59.5 -130.42 55.66 -125.8 52.24 C-125.1 51.54 -124.4 50.84 -123.68 50.11 C-121.8 48.24 -121.8 48.24 -119.8 47.24 C-119.27 46.67 -118.74 46.11 -118.19 45.53 C-89.52 17.99 -39.2 0.31 0 0 Z M-197.8 172.24 C-196.8 174.24 -196.8 174.24 -196.8 174.24 Z M-199.8 183.24 C-198.8 185.24 -198.8 185.24 -198.8 185.24 Z M-199.8 255.24 C-198.8 257.24 -198.8 257.24 -198.8 257.24 Z " fill="#090F47" transform="translate(201.8046875,-0.23828125)"/>
<path d="M0 0 C2.63 0.58 5.02 0.63 7.7 0.68 C11.93 1.03 13.69 2.21 16.51 5.36 C18.14 7.45 19.39 9.23 20.35 11.7 C22.08 14.46 24.04 14.58 27.14 15.3 C28.14 15.54 29.14 15.79 30.18 16.04 C30.95 16.21 31.72 16.38 32.51 16.55 C32.51 17.21 32.51 17.87 32.51 18.55 C33.07 18.28 33.63 18.01 34.2 17.74 C34.96 17.68 35.73 17.61 36.51 17.55 C39.07 19.93 39.07 19.93 41.51 22.55 C43 23.05 43 23.05 44.51 23.55 C44.97 24.54 45.42 25.53 45.89 26.55 C47.17 29.72 47.17 29.72 49.82 30.36 C50.71 30.43 51.6 30.49 52.51 30.55 C58.14 31.24 58.14 31.24 60.39 33.11 C63.19 35.01 65.29 34.47 68.56 34.35 C70.51 34.55 70.51 34.55 73.14 36.61 C74.31 38.07 74.31 38.07 75.51 39.55 C76.05 40.14 76.59 40.73 77.15 41.34 C81.51 46.13 81.51 46.13 81.51 49.55 C85.1 51.42 88.79 52.98 92.51 54.55 C92.51 53.89 92.51 53.23 92.51 52.55 C93.25 52.3 94 52.06 94.76 51.8 C97.61 50.77 97.61 50.77 99.14 48.43 C102.6 45.69 105.64 46 109.94 46.17 C112.51 46.55 112.51 46.55 115.14 48.18 C116.77 50.99 117 53.35 117.51 56.55 C118.19 57.56 118.87 58.57 119.57 59.61 C121.6 62.69 121.93 63.97 121.51 67.55 C123.12 67.95 123.12 67.95 124.76 68.36 C128.22 69.46 129.71 70.45 132.51 72.55 C133.65 72.84 134.78 73.13 135.95 73.43 C140.05 74.72 141.63 76.44 144.51 79.55 C147.8 81.78 150.58 82.05 154.51 81.55 C156.42 79.67 156.42 79.67 157.51 77.55 C159.39 77.86 159.39 77.86 161.51 78.55 C163.81 82 163.65 82.79 163.14 86.74 C163.03 87.64 162.91 88.54 162.8 89.47 C162.71 90.16 162.61 90.84 162.51 91.55 C165.83 93.77 167.53 93.97 171.45 94.3 C172.49 94.4 173.53 94.5 174.6 94.6 C177.66 94.55 178.86 93.9 181.51 92.55 C184.02 92.64 184.02 92.64 186.64 93.05 C189.2 93.5 189.2 93.5 191.51 93.55 C192.17 92.89 192.83 92.23 193.51 91.55 C195.51 94.55 195.51 94.55 195.51 97.55 C196.38 97.83 196.38 97.83 197.26 98.11 C200.52 100.19 201.8 103.21 203.51 106.55 C204.11 107.58 204.71 108.61 205.32 109.68 C206.66 112.91 206.6 114.28 205.51 117.55 C205.18 118.21 204.85 118.87 204.51 119.55 C200.2 117.98 196.45 115.87 192.51 113.55 C193.17 117.51 193.83 121.47 194.51 125.55 C188.57 125.06 188.57 125.06 182.51 124.55 C183.5 125.99 184.49 127.44 185.51 128.93 C188.51 133.3 188.51 133.3 188.51 135.55 C182.89 138.55 182.89 138.55 179.51 138.55 C181.28 140.5 182.85 141.75 185.14 143.11 C187.51 144.55 187.51 144.55 188.51 146.55 C187.73 148.28 187.73 148.28 186.57 150.18 C185.89 151.29 185.21 152.4 184.51 153.55 C187.81 154.21 191.11 154.87 194.51 155.55 C194.51 158.85 194.51 162.15 194.51 165.55 C195.6 164.71 196.7 163.86 197.82 162.99 C199.69 161.55 199.69 161.55 201.51 160.55 C202.5 160.88 203.49 161.21 204.51 161.55 C205.18 163.55 205.85 165.55 206.51 167.55 C207.5 167.88 208.49 168.21 209.51 168.55 C210.83 165.58 212.15 162.61 213.51 159.55 C216.62 161.11 219.55 162.74 222.51 164.55 C222.48 163.92 222.44 163.3 222.41 162.65 C222.38 161.84 222.35 161.02 222.32 160.18 C222.29 159.36 222.25 158.55 222.22 157.71 C222.32 157 222.41 156.29 222.51 155.55 C226.69 152.76 228.66 153.76 233.51 154.55 C233.15 154 232.79 153.44 232.42 152.87 C231.95 152.15 231.49 151.42 231.01 150.68 C230.55 149.96 230.08 149.24 229.61 148.5 C228.51 146.55 228.51 146.55 228.51 144.55 C235.14 141.55 235.14 141.55 238.51 141.55 C238.51 140.89 238.51 140.23 238.51 139.55 C237.85 139.55 237.19 139.55 236.51 139.55 C236.51 138.89 236.51 138.23 236.51 137.55 C235.37 137.4 235.37 137.4 234.2 137.24 C231.29 136.49 230.48 135.71 228.51 133.55 C229.32 132.4 230.14 131.26 230.95 130.11 C231.63 129.16 231.63 129.16 232.32 128.18 C233.51 126.55 233.51 126.55 234.51 125.55 C230.88 125.55 227.25 125.55 223.51 125.55 C222.35 122.08 222.44 119.19 222.51 115.55 C221.58 116.21 220.66 116.87 219.7 117.55 C216.51 119.55 216.51 119.55 213.51 119.55 C211.51 116.55 211.51 116.55 211.51 113.55 C212.17 113.55 212.83 113.55 213.51 113.55 C213.49 112.85 213.47 112.15 213.44 111.43 C213.42 110.52 213.41 109.61 213.39 108.68 C213.36 107.77 213.34 106.87 213.32 105.93 C213.51 103.55 213.51 103.55 215.51 101.55 C216.83 101.55 218.15 101.55 219.51 101.55 C219.78 102.5 220.05 103.45 220.32 104.43 C221.26 107.8 221.26 107.8 224.51 109.55 C226.57 109.79 226.57 109.79 228.7 109.68 C229.96 109.63 231.22 109.59 232.51 109.55 C233.4 106.88 233.99 104.31 234.51 101.55 C236.49 101.22 238.47 100.89 240.51 100.55 C240.51 99.89 240.51 99.23 240.51 98.55 C241.17 98.55 241.83 98.55 242.51 98.55 C242.84 99.87 243.17 101.19 243.51 102.55 C245.15 102.92 245.15 102.92 246.82 103.3 C253.29 104.92 259.94 106.84 265.51 110.55 C271.4 112.12 275.66 111.36 281.23 109.19 C285.14 108.1 288.55 108.86 292.51 109.55 C292.95 108.59 292.95 108.59 293.39 107.61 C294.51 105.55 294.51 105.55 296.39 104.68 C298.99 104.52 300.31 105.22 302.51 106.55 C303.29 105.56 303.29 105.56 304.07 104.55 C306.51 102.55 306.51 102.55 310.07 102.05 C313.51 102.55 313.51 102.55 315.27 104.12 C317.06 107.63 316.46 110.07 315.89 113.93 C315.71 115.21 315.53 116.5 315.35 117.82 C314.53 121.49 313.25 124.24 311.51 127.55 C311.24 131.04 311.4 133.23 312.51 136.55 C312.18 137.21 311.85 137.87 311.51 138.55 C311.44 140.59 311.43 142.63 311.45 144.68 C311.46 146.32 311.46 146.32 311.48 148 C311.49 148.84 311.5 149.68 311.51 150.55 C312.12 150.79 312.72 151.03 313.34 151.27 C317.49 153.71 319.01 158.14 320.51 162.55 C321.24 168.15 321.14 172.54 318.51 177.55 C317.94 179.9 317.51 182.25 317.07 184.62 C316.89 185.26 316.7 185.9 316.51 186.55 C315.85 186.88 315.19 187.21 314.51 187.55 C313.62 186.89 312.74 186.23 311.82 185.55 C308.53 183.56 307.23 183.11 303.51 183.55 C303.51 184.21 303.51 184.87 303.51 185.55 C302.77 185.51 302.03 185.47 301.26 185.43 C298.55 185.35 298.55 185.35 296.57 186.61 C293.67 187.93 291.59 187.14 288.51 186.55 C285.23 187.3 285.23 187.3 283.51 190.55 C281.93 190.29 280.34 190.02 278.76 189.74 C277.44 189.51 277.44 189.51 276.09 189.28 C271.84 188.08 269.94 186.19 267.51 182.55 C266.98 183.06 266.44 183.56 265.89 184.08 C260.86 188.47 257.49 190.33 250.77 190.09 C248.08 189.45 246.66 188.27 244.51 186.55 C239.03 183.96 234 183.28 228 183.53 C225.48 183.55 223.23 183.22 220.76 182.8 C217.44 182.36 215.75 182.62 212.95 184.49 C212.14 185.17 211.34 185.85 210.51 186.55 C204.76 183.8 204.76 183.8 202.51 181.55 C201.79 179.23 201.12 176.9 200.51 174.55 C197.35 173.56 195.94 173.36 192.86 174.73 C191.96 175.29 191.06 175.85 190.14 176.43 C185.74 178.99 182.58 180.33 177.51 180.55 C176.85 178.9 176.19 177.25 175.51 175.55 C174.29 175.63 173.08 175.72 171.82 175.8 C168.43 175.81 167.54 175.57 164.51 173.68 C162.51 171.55 162.51 171.55 162.51 169.55 C161.84 169.44 161.16 169.33 160.46 169.22 C159.57 169.06 158.68 168.9 157.76 168.74 C156.44 168.51 156.44 168.51 155.09 168.28 C152.24 167.47 150.64 166.6 148.51 164.55 C147.82 162.68 147.82 162.68 147.51 160.68 C146.89 156.7 145.38 154.39 142.51 151.55 C139.43 150.63 139.43 150.63 136.07 150.43 C131.35 149.98 128.46 149.2 124.51 146.55 C122.86 145.85 121.19 145.18 119.51 144.55 C118.36 145.48 117.22 146.42 116.07 147.36 C115.44 147.89 114.8 148.41 114.14 148.95 C112.26 150.56 112.26 150.56 111.51 153.55 C108.14 153.15 105.73 152.68 102.76 150.99 C98.3 149.02 94.32 149.29 89.51 149.55 C89.84 151.2 90.17 152.85 90.51 154.55 C89.19 154.55 87.87 154.55 86.51 154.55 C86.18 155.54 85.85 156.53 85.51 157.55 C81.86 157.24 80.74 156.81 78.26 153.99 C75.23 151.3 74.76 151.23 70.95 151.3 C70.21 151.36 69.46 151.41 68.7 151.47 C66.42 151.55 64.7 151.12 62.51 150.55 C61.5 150.63 60.49 150.72 59.45 150.8 C56.51 150.55 56.51 150.55 54.76 148.49 C53.37 145.23 52.39 141.98 51.51 138.55 C50.34 139.07 49.16 139.58 47.95 140.11 C43.66 141.67 40.98 141.94 36.51 140.55 C34.88 139.42 33.28 138.25 31.7 137.05 C26.88 133.46 22.57 131.92 16.51 132.55 C15.52 133.21 14.53 133.87 13.51 134.55 C8.81 134.27 4.94 131.88 0.89 129.68 C0.22 129.32 -0.45 128.97 -1.14 128.61 C-4.35 126.88 -6.99 125.21 -9.49 122.55 C-10.94 122.09 -10.94 122.09 -12.43 121.61 C-15.86 120.42 -17.22 119.36 -19.49 116.55 C-19.94 115.56 -20.4 114.57 -20.86 113.55 C-22.96 109.69 -24.56 108.55 -28.49 106.55 C-31.46 105.75 -34.45 105.08 -37.45 104.4 C-41.21 103.35 -44.25 101.7 -47.58 99.69 C-50.43 97.99 -53.14 96.55 -56.49 96.55 C-56.49 98.2 -56.49 99.85 -56.49 101.55 C-56.98 100.56 -56.98 100.56 -57.49 99.55 C-58.52 99.45 -59.55 99.34 -60.61 99.24 C-65.54 98.36 -67.68 96.74 -71.49 93.55 C-71.49 92.89 -71.49 92.23 -71.49 91.55 C-73.16 91.37 -73.16 91.37 -74.86 91.18 C-78.49 90.55 -78.49 90.55 -80.49 88.55 C-80.25 84.12 -78.57 82.54 -75.49 79.55 C-72.34 73.84 -70.9 69.11 -71.49 62.55 C-72.14 61.21 -72.8 59.87 -73.49 58.55 C-73.49 54.62 -71.8 52.56 -69.43 49.61 C-66.6 46.05 -66.18 44.14 -66.49 39.55 C-64.9 36.45 -63.68 35.64 -60.49 34.18 C-56.82 32.19 -56.01 30.35 -54.49 26.55 C-53.83 26.55 -53.17 26.55 -52.49 26.55 C-52.06 25.44 -52.06 25.44 -51.61 24.3 C-49.76 19.78 -48.25 17.08 -44.43 13.93 C-41.51 11.6 -41.51 11.6 -39.49 8.55 C-35.13 9.87 -32.41 12.18 -29.14 15.21 C-27.42 16.77 -27.42 16.77 -24.49 17.55 C-24.43 16.77 -24.36 15.98 -24.3 15.18 C-24.03 14.31 -23.76 13.44 -23.49 12.55 C-20.93 11.24 -20.93 11.24 -18.49 10.55 C-18.69 9.46 -18.9 8.36 -19.11 7.24 C-19.49 3.55 -19.49 3.55 -17.49 0.55 C-11.53 -1.8 -6.09 -1.56 0 0 Z " fill="#FBFCFE" transform="translate(99.48828125,124.44921875)"/>
<path d="M0 0 C1.02 -0.02 2.04 -0.04 3.1 -0.06 C7.82 -0.12 12.55 -0.17 17.27 -0.2 C19.75 -0.22 22.24 -0.25 24.72 -0.3 C28.31 -0.37 31.89 -0.39 35.48 -0.41 C36.58 -0.44 37.67 -0.47 38.8 -0.5 C48.33 -0.47 55.72 2.7 63.21 8.55 C72.7 18.78 76.98 27.44 76.62 41.61 C75.53 51.17 71.62 59.95 64.21 66.21 C58.07 70.47 53.03 73.27 45.49 73.49 C44.37 73.53 43.26 73.56 42.11 73.6 C39.75 73.67 37.4 73.74 35.04 73.81 C33.93 73.85 32.82 73.89 31.67 73.93 C30.65 73.96 29.63 73.99 28.57 74.02 C26.26 73.95 26.26 73.95 25.21 75.21 C25.05 77.43 24.96 79.65 24.9 81.87 C24.87 82.53 24.85 83.2 24.83 83.88 C24.77 86.01 24.71 88.14 24.65 90.27 C24.61 91.71 24.56 93.15 24.52 94.59 C24.41 98.13 24.31 101.67 24.21 105.21 C14.64 105.21 5.07 105.21 -4.79 105.21 C-5.93 102.92 -5.91 101.65 -5.92 99.1 C-5.92 98.24 -5.92 97.38 -5.92 96.5 C-5.92 95.55 -5.92 94.61 -5.92 93.63 C-5.92 92.64 -5.92 91.65 -5.92 90.62 C-5.93 87.33 -5.92 84.03 -5.92 80.74 C-5.92 78.45 -5.92 76.17 -5.92 73.89 C-5.93 69.11 -5.92 64.32 -5.92 59.53 C-5.91 53.38 -5.92 47.23 -5.92 41.08 C-5.93 36.37 -5.92 31.66 -5.92 26.95 C-5.92 24.68 -5.92 22.41 -5.92 20.14 C-5.93 16.98 -5.92 13.82 -5.92 10.65 C-5.92 9.71 -5.92 8.76 -5.92 7.78 C-5.9 0.1 -5.9 0.1 0 0 Z M24.21 28.21 C23.93 30.24 23.93 30.24 24.02 32.56 C24.02 33.41 24.03 34.26 24.04 35.14 C24.05 36.03 24.07 36.92 24.09 37.83 C24.1 38.73 24.1 39.63 24.11 40.55 C24.14 42.77 24.17 44.99 24.21 47.21 C27.15 47.32 30.08 47.4 33.02 47.46 C34.27 47.51 34.27 47.51 35.55 47.56 C40.26 47.74 40.26 47.74 44.24 45.58 C45.44 42.64 45.73 40.13 45.9 36.96 C45.96 35.88 46.03 34.8 46.1 33.69 C46.14 32.87 46.17 32.05 46.21 31.21 C45.55 31.21 44.89 31.21 44.21 31.21 C43.78 30.25 43.78 30.25 43.34 29.27 C42.38 27.06 42.38 27.06 40.21 26.21 C37.88 26.09 35.55 26.03 33.21 26.02 C31.95 26.01 30.7 25.99 29.4 25.98 C26.12 25.87 26.12 25.87 24.21 28.21 Z " fill="#CF3A38" transform="translate(464.788330078125,125.791259765625)"/>
<path d="M0 0 C9 7.16 11.66 13.87 13 25 C13.25 28.81 13.41 32.62 13.56 36.44 C13.61 37.46 13.65 38.47 13.69 39.52 C13.8 42.01 13.9 44.51 14 47 C15.32 47.66 16.64 48.32 18 49 C18 57.25 18 65.5 18 74 C14.02 74.99 10.71 75.2 6.62 75.25 C5.34 75.28 4.05 75.3 2.73 75.33 C-1.27 74.98 -3.61 74.12 -7 72 C-11 66.95 -11 66.95 -11 63 C-11.66 63 -12.32 63 -13 63 C-13.24 63.6 -13.48 64.19 -13.73 64.8 C-15.24 67.42 -16.73 68.49 -19.25 70.12 C-20 70.62 -20.75 71.12 -21.52 71.63 C-29.44 75.99 -39.05 76.55 -47.77 74.28 C-55.76 70.92 -61.01 65.6 -65 58 C-66.79 52.63 -67.04 46.81 -65.06 41.45 C-62.65 36.96 -59.89 33.33 -56 30 C-55.03 29.13 -54.06 28.27 -53.06 27.38 C-45.95 22.43 -35.48 21.28 -27 22 C-24.57 22.45 -22.18 22.97 -19.79 23.56 C-18.14 24.04 -18.14 24.04 -17 24 C-17.79 19.28 -17.79 19.28 -20.7 15.8 C-28.35 13.15 -36.66 14.63 -43.84 17.91 C-44.55 18.27 -45.27 18.63 -46 19 C-52 22 -52 22 -54 22 C-55.34 19.4 -56.67 16.79 -58 14.19 C-58.38 13.45 -58.76 12.71 -59.16 11.95 C-59.52 11.24 -59.88 10.53 -60.25 9.79 C-60.59 9.14 -60.92 8.48 -61.27 7.81 C-62 6 -62 6 -62 3 C-42.91 -7.3 -19.41 -12.49 0 0 Z M-33 -6 C-33 -5.67 -33 -5.34 -33 -5 C-31.35 -5 -29.7 -5 -28 -5 C-28 -5.33 -28 -5.66 -28 -6 C-29.65 -6 -31.3 -6 -33 -6 Z M-24 -6 C-24 -5.67 -24 -5.34 -24 -5 C-22.35 -5 -20.7 -5 -19 -5 C-19 -5.33 -19 -5.66 -19 -6 C-20.65 -6 -22.3 -6 -24 -6 Z M-31 23 C-27 24 -27 24 -27 24 Z M-37.44 43.81 C-38.21 46.82 -37.79 49.03 -37 52 C-34.2 53.4 -31.81 53.25 -28.69 53.31 C-26.99 53.37 -26.99 53.37 -25.26 53.43 C-21.32 52.91 -19.7 51.89 -17 49 C-16.4 46.88 -16.4 46.88 -16.69 44.75 C-16.79 43.51 -16.89 42.28 -17 41 C-23.78 37.61 -32.38 37.44 -37.44 43.81 Z M-65 44 C-64 46 -64 46 -64 46 Z M-32 54 C-32 54.33 -32 54.66 -32 55 C-29.69 55 -27.38 55 -25 55 C-25 54.67 -25 54.34 -25 54 C-27.31 54 -29.62 54 -32 54 Z " fill="#CF3A38" transform="translate(1262,158)"/>
<path d="M0 0 C7.67 6.54 13.21 13.96 14.22 24.26 C14.84 37.42 14.54 48.1 5.56 58.44 C1.19 63.05 -3.01 66.89 -9 69.19 C-9.83 69.51 -10.65 69.83 -11.5 70.17 C-22.48 73.82 -37.39 73.61 -48 69 C-59.65 62.87 -67.43 53.57 -71.64 41.09 C-73.77 28.57 -71.43 17.95 -64.71 7.35 C-58.39 -1.32 -47.77 -7.63 -37.25 -9.75 C-22.57 -11.36 -11.81 -8.85 0 0 Z M-35 -9 C-35 -8.67 -35 -8.34 -35 -8 C-33.35 -8 -31.7 -8 -30 -8 C-30 -8.33 -30 -8.66 -30 -9 C-31.65 -9 -33.3 -9 -35 -9 Z M-26 -9 C-26 -8.67 -26 -8.34 -26 -8 C-24.35 -8 -22.7 -8 -21 -8 C-21 -8.33 -21 -8.66 -21 -9 C-22.65 -9 -24.3 -9 -26 -9 Z M-36 18 C-40.06 22.29 -41.79 25.89 -42.38 31.75 C-42.24 36.6 -40.74 40.99 -38 45 C-35.42 46.05 -35.42 46.05 -33 46 C-32.67 46.66 -32.34 47.32 -32 48 C-24.57 47.31 -24.57 47.31 -18.38 43.62 C-15 37.18 -15.44 30.14 -16.69 23.12 C-18.26 19.39 -19.5 18.02 -23 16 C-28.37 14.53 -31.36 14.91 -36 18 Z M-16 25 C-15 27 -15 27 -15 27 Z M-16 37 C-15 39 -15 39 -15 39 Z " fill="#CF3A38" transform="translate(1093,161)"/>
<path d="M0 0 C5.56 4.34 9.15 8.36 11.06 15.31 C11.3 18.35 11.3 18.35 11.29 21.59 C11.29 22.81 11.29 24.03 11.29 25.29 C11.28 26.6 11.27 27.9 11.26 29.24 C11.25 30.6 11.25 31.96 11.25 33.32 C11.24 36.88 11.22 40.44 11.2 44 C11.18 47.64 11.17 51.28 11.16 54.92 C11.14 62.05 11.1 69.18 11.06 76.31 C1.82 76.31 -7.42 76.31 -16.94 76.31 C-18.07 74.05 -18.08 72.76 -18.13 70.25 C-18.14 69.41 -18.16 68.57 -18.18 67.71 C-18.19 66.8 -18.2 65.89 -18.22 64.96 C-18.24 64.02 -18.26 63.09 -18.27 62.12 C-18.33 59.12 -18.39 56.12 -18.44 53.12 C-18.51 49.19 -18.58 45.26 -18.66 41.33 C-18.67 40.43 -18.68 39.54 -18.7 38.61 C-18.79 33.75 -19.13 29.1 -19.94 24.31 C-23.42 23.37 -25.67 22.82 -29.08 24.15 C-33.79 26.89 -35.85 29.16 -37.94 34.31 C-38.39 37.57 -38.43 40.8 -38.45 44.09 C-38.47 45.01 -38.49 45.93 -38.5 46.89 C-38.56 49.82 -38.59 52.75 -38.62 55.69 C-38.66 57.68 -38.69 59.68 -38.73 61.68 C-38.82 66.55 -38.88 71.43 -38.94 76.31 C-48.18 76.31 -57.42 76.31 -66.94 76.31 C-68.43 73.34 -68.07 70.64 -68.08 67.32 C-68.09 66.61 -68.09 65.89 -68.09 65.15 C-68.1 62.76 -68.1 60.38 -68.11 58 C-68.11 56.35 -68.11 54.7 -68.12 53.05 C-68.12 49.58 -68.12 46.12 -68.12 42.66 C-68.12 38.21 -68.14 33.76 -68.15 29.32 C-68.16 25.91 -68.17 22.5 -68.17 19.09 C-68.17 17.45 -68.17 15.81 -68.18 14.17 C-68.19 11.88 -68.19 9.59 -68.18 7.3 C-68.18 6 -68.18 4.69 -68.18 3.35 C-67.94 0.31 -67.94 0.31 -65.94 -1.69 C-63.72 -1.93 -63.72 -1.93 -61 -1.92 C-59.53 -1.92 -59.53 -1.92 -58.04 -1.91 C-57.02 -1.9 -55.99 -1.89 -54.94 -1.88 C-53.91 -1.87 -52.89 -1.87 -51.84 -1.87 C-44.22 -1.83 -44.22 -1.83 -41.94 -0.69 C-41.53 1.63 -41.19 3.97 -40.94 6.31 C-40.02 5.76 -39.1 5.2 -38.16 4.63 C-26.93 -2.04 -11.99 -9.05 0 0 Z M-18.94 -2.69 C-18.94 -2.36 -18.94 -2.03 -18.94 -1.69 C-17.29 -1.69 -15.64 -1.69 -13.94 -1.69 C-13.94 -2.02 -13.94 -2.35 -13.94 -2.69 C-15.59 -2.69 -17.24 -2.69 -18.94 -2.69 Z M-17.94 29.31 C-16.94 31.31 -16.94 31.31 -16.94 31.31 Z " fill="#CF3A38" transform="translate(729.9375,154.6875)"/>
<path d="M0 0 C5.17 3.66 9.18 8.88 10.39 15.12 C11.16 20.87 10.97 26.67 10.94 32.46 C10.94 33.71 10.94 34.97 10.94 36.26 C10.93 39.58 10.92 42.89 10.91 46.21 C10.9 49.6 10.9 52.99 10.89 56.38 C10.88 63.02 10.86 69.66 10.84 76.3 C6.89 76.35 2.94 76.39 -1.01 76.41 C-3.02 76.43 -5.02 76.45 -7.03 76.48 C-8.28 76.49 -9.54 76.49 -10.84 76.5 C-12 76.51 -13.16 76.52 -14.36 76.53 C-17.16 76.3 -17.16 76.3 -19.16 74.3 C-19.43 72.17 -19.43 72.17 -19.48 69.49 C-19.49 68.49 -19.51 67.49 -19.54 66.45 C-19.55 65.37 -19.56 64.29 -19.57 63.17 C-19.59 62.06 -19.61 60.96 -19.63 59.82 C-19.69 56.27 -19.74 52.73 -19.78 49.18 C-19.82 46.78 -19.86 44.38 -19.9 41.98 C-19.99 36.09 -20.08 30.2 -20.16 24.3 C-25.22 23.46 -28.41 23.15 -33.16 25.3 C-35.65 27.28 -36.12 28.2 -37.16 31.3 C-37.49 31.96 -37.82 32.62 -38.16 33.3 C-38.27 34.69 -38.33 36.09 -38.36 37.48 C-38.38 38.34 -38.4 39.2 -38.42 40.09 C-38.45 41.48 -38.45 41.48 -38.47 42.91 C-38.49 43.86 -38.51 44.81 -38.54 45.79 C-38.6 48.84 -38.66 51.88 -38.72 54.93 C-38.76 56.99 -38.81 59.05 -38.85 61.12 C-38.96 66.18 -39.06 71.24 -39.16 76.3 C-48.4 76.3 -57.64 76.3 -67.16 76.3 C-67.31 66.28 -67.46 56.26 -67.6 46.24 C-67.66 41.58 -67.73 36.93 -67.8 32.28 C-67.87 27.79 -67.94 23.3 -68 18.82 C-68.02 17.1 -68.05 15.39 -68.08 13.67 C-68.12 11.28 -68.15 8.88 -68.18 6.49 C-68.19 5.77 -68.2 5.05 -68.22 4.32 C-68.24 2.65 -68.2 0.97 -68.16 -0.7 C-66.48 -2.38 -64.4 -1.83 -62.1 -1.83 C-61.07 -1.83 -60.05 -1.83 -58.99 -1.83 C-57.37 -1.83 -57.37 -1.83 -55.72 -1.82 C-54.64 -1.82 -53.57 -1.83 -52.46 -1.83 C-50.92 -1.83 -50.92 -1.83 -49.35 -1.83 C-48.4 -1.83 -47.45 -1.83 -46.48 -1.82 C-44.16 -1.7 -44.16 -1.7 -42.16 -0.7 C-41.75 1.63 -41.41 3.96 -41.16 6.3 C-40.66 5.92 -40.16 5.53 -39.64 5.13 C-28.03 -3.29 -13.03 -7.56 0 0 Z M-19.16 -2.7 C-15.16 -1.7 -15.16 -1.7 -15.16 -1.7 Z " fill="#CF3A38" transform="translate(999.15625,154.6953125)"/>
<path d="M0 0 C9.57 0.33 19.14 0.66 29 1 C29 8.59 29 16.18 29 24 C32.16 23.97 32.16 23.97 35.38 23.94 C41.75 23.88 41.75 23.88 44 25 C44 31.93 44 38.86 44 46 C40.81 46.22 40.81 46.22 37.56 46.44 C33.46 46.37 33.46 46.37 30 48 C29.9 49.9 29.87 51.81 29.87 53.71 C29.87 54.88 29.86 56.04 29.86 57.23 C29.87 59.07 29.87 59.07 29.88 60.94 C29.87 62.16 29.87 63.38 29.86 64.63 C29.87 66.37 29.87 66.37 29.87 68.15 C29.87 69.76 29.87 69.76 29.87 71.4 C29.82 73.98 29.82 73.98 31 76 C32.37 75.98 32.37 75.98 33.77 75.96 C35.56 75.95 35.56 75.95 37.38 75.94 C39.15 75.92 39.15 75.92 40.96 75.9 C44 76 44 76 46 77 C47.02 79.83 47.55 82.81 48.19 85.75 C48.38 86.56 48.57 87.37 48.76 88.21 C49.7 92.43 50.35 95.76 49 100 C40.83 102.7 33.18 104.41 24.56 104.5 C23.83 104.52 23.1 104.54 22.34 104.55 C15.94 104.48 10.83 102.45 5.98 98.25 C5.31 97.42 5.31 97.42 4.62 96.56 C3.93 95.73 3.93 95.73 3.23 94.88 C-0.23 89.59 -0.26 84.92 -0.16 78.8 C-0.15 77.48 -0.15 77.48 -0.14 76.14 C-0.13 73.34 -0.1 70.55 -0.06 67.75 C-0.03 64.94 -0.01 62.13 0.01 59.32 C0.02 57.58 0.04 55.83 0.06 54.08 C0.08 52.06 0.04 50.03 0 48 C-1.8 46.2 -4.73 46.59 -7.19 46.38 C-8.08 46.19 -8.08 46.19 -9 46 C-10.71 42.58 -10.18 38.77 -10.19 35 C-10.2 34.17 -10.21 33.33 -10.22 32.48 C-10.23 31.68 -10.23 30.88 -10.23 30.06 C-10.23 29.33 -10.24 28.6 -10.24 27.85 C-10 26 -10 26 -8 24 C-5.36 24 -2.72 24 0 24 C0 16.08 0 8.16 0 0 Z " fill="#CF3A38" transform="translate(762,129)"/>
<path d="M0 0 C4.46 -0.03 8.92 -0.05 13.38 -0.06 C14.65 -0.07 15.92 -0.08 17.23 -0.09 C19.04 -0.09 19.04 -0.09 20.9 -0.1 C22.58 -0.11 22.58 -0.11 24.29 -0.11 C27 0 27 0 29 1 C29.69 2.88 29.69 2.88 30.31 5.38 C30.55 6.31 30.79 7.24 31.03 8.2 C31.28 9.22 31.53 10.23 31.79 11.27 C32.18 12.83 32.18 12.83 32.58 14.41 C33.41 17.73 34.24 21.05 35.06 24.38 C35.89 27.69 36.73 31.01 37.56 34.32 C38.08 36.39 38.59 38.45 39.11 40.52 C39.34 41.46 39.58 42.39 39.82 43.36 C40.02 44.19 40.23 45.01 40.44 45.86 C40.89 47.59 41.43 49.3 42 51 C42.14 50.41 42.29 49.81 42.44 49.2 C43.93 43.01 45.44 36.83 46.96 30.66 C47.53 28.35 48.09 26.04 48.65 23.73 C49.45 20.42 50.26 17.11 51.08 13.79 C51.33 12.76 51.58 11.72 51.83 10.66 C52.07 9.7 52.31 8.74 52.56 7.75 C52.76 6.9 52.97 6.05 53.18 5.18 C54.09 2.76 54.98 1.59 57 0 C59.42 -0.36 59.42 -0.36 62.25 -0.33 C63.78 -0.32 63.78 -0.32 65.34 -0.31 C66.4 -0.29 67.47 -0.27 68.56 -0.25 C69.63 -0.24 70.7 -0.24 71.79 -0.23 C79.69 -0.15 79.69 -0.15 82 1 C81.44 6.94 80.17 12.11 78.19 17.73 C77.91 18.55 77.63 19.37 77.33 20.22 C76.42 22.88 75.49 25.53 74.56 28.19 C73.93 30.02 73.29 31.85 72.66 33.69 C71.39 37.37 70.11 41.05 68.83 44.73 C66.94 50.17 65.06 55.61 63.19 61.06 C61.13 67.04 59.07 73.02 57 79 C46.44 78.67 35.88 78.34 25 78 C20.53 67.94 20.53 67.94 19.44 63.94 C18.43 60.28 17.17 56.77 15.82 53.22 C14.34 49.21 13.02 45.13 11.69 41.06 C9.44 34.27 7.15 27.49 4.75 20.75 C4.38 19.71 4.38 19.71 4 18.64 C2.99 15.78 1.97 12.93 0.93 10.09 C-0.45 6.27 -1.24 3.89 0 0 Z M46 38 C47 40 47 40 47 40 Z M42 53 C43 55 43 55 43 55 Z " fill="#CF3A38" transform="translate(1111,153)"/>
<path d="M0 0 C18.63 -1.09 42.84 3.75 58 15 C58.72 14.39 59.45 13.78 60.19 13.15 C72.51 3.71 94.22 -0.27 109.44 -0.06 C110.73 -0.05 110.73 -0.05 112.06 -0.04 C112.7 -0.02 113.34 -0.01 114 0 C112.6 3.09 110.93 5.46 108.69 8 C108.11 8.66 107.54 9.32 106.95 10 C101.96 15.12 97.43 17.14 90.69 19.12 C89.87 19.38 89.05 19.63 88.21 19.89 C74.7 24 74.7 24 69 24 C72.12 27.13 75.25 30.23 78.4 33.33 C80.06 34.97 81.72 36.61 83.38 38.25 C84.2 39.06 85.02 39.87 85.88 40.7 C90.49 45.27 94.64 49.88 98.42 55.17 C100.9 58.04 103.42 58.9 107 60 C106.37 61.68 105.7 63.35 105 65 C104.65 65.85 104.3 66.69 103.94 67.56 C101.05 71.2 97.27 72.4 93 74 C92 73 92 73 91.44 69.12 C90.05 62.63 86.11 58.06 82 53 C81.41 52.25 80.81 51.5 80.2 50.73 C76.74 46.56 73.1 43.35 68.6 40.32 C67 39 67 39 66 36 C64.68 35.63 63.34 35.31 62 35 C59.75 33.44 59.75 33.44 58 32 C55.51 33.2 53.32 34.45 51 36 C50.01 35.5 50.01 35.5 49 35 C48.92 35.6 48.84 36.19 48.75 36.8 C47.77 39.68 46.48 40.41 44 42.12 C35.13 48.74 23.75 59.71 22.06 71.19 C22.04 72.12 22.02 73.04 22 74 C20.32 73.36 18.66 72.69 17 72 C15.97 71.59 14.94 71.18 13.88 70.75 C10.34 68.6 9.35 66.88 8 63 C8.21 60.91 8.21 60.91 9 59 C10.95 58.09 12.89 57.19 14.84 56.29 C18.02 54.39 19.68 51.81 21.82 48.84 C24.67 45.12 27.81 41.73 31 38.31 C31.58 37.68 32.16 37.05 32.76 36.41 C36.62 32.29 40.66 28.6 45 25 C44.28 24.81 43.57 24.62 42.83 24.42 C39.55 23.54 36.28 22.64 33 21.75 C31.87 21.45 30.75 21.15 29.59 20.84 C15.93 17.09 7.46 12.14 0 0 Z " fill="#080F47" transform="translate(813,160)"/>
<path d="M0 0 C2 2 2 2 2.23 4.52 C2.22 5.56 2.21 6.6 2.2 7.66 C2.19 8.79 2.18 9.91 2.18 11.06 C2.16 12.24 2.14 13.41 2.12 14.62 C2.12 15.81 2.11 16.99 2.1 18.21 C2.07 21.14 2.04 24.07 2 27 C0.93 27.17 -0.15 27.34 -1.25 27.52 C-2.69 27.76 -4.13 28 -5.56 28.25 C-6.27 28.36 -6.97 28.47 -7.7 28.58 C-12.87 29.49 -16.61 31.09 -21 34 C-22.15 36.31 -22.15 37.7 -22.21 40.27 C-22.23 41.15 -22.25 42.03 -22.27 42.94 C-22.29 44.36 -22.29 44.36 -22.32 45.82 C-22.34 46.79 -22.36 47.77 -22.38 48.77 C-22.44 51.89 -22.5 55.01 -22.56 58.12 C-22.61 60.24 -22.65 62.35 -22.69 64.46 C-22.8 69.64 -22.9 74.82 -23 80 C-32.24 80 -41.48 80 -51 80 C-52.49 77.02 -52.14 74.33 -52.15 71.01 C-52.15 70.29 -52.15 69.57 -52.16 68.83 C-52.16 66.45 -52.17 64.07 -52.17 61.69 C-52.17 60.04 -52.17 58.38 -52.18 56.73 C-52.18 53.27 -52.19 49.81 -52.19 46.34 C-52.19 41.9 -52.2 37.45 -52.22 33.01 C-52.23 29.6 -52.23 26.18 -52.23 22.77 C-52.23 21.13 -52.23 19.49 -52.24 17.85 C-52.25 15.57 -52.25 13.28 -52.24 10.99 C-52.24 9.68 -52.25 8.38 -52.25 7.04 C-52 4 -52 4 -50 2 C-47.69 1.76 -47.69 1.76 -44.84 1.77 C-43.82 1.77 -42.8 1.77 -41.75 1.78 C-40.67 1.79 -39.6 1.8 -38.5 1.81 C-37.43 1.81 -36.36 1.81 -35.25 1.81 C-27.28 1.86 -27.28 1.86 -25 3 C-24.59 5.07 -24.59 5.07 -24.38 7.56 C-24.3 8.39 -24.23 9.22 -24.15 10.07 C-24.1 10.7 -24.05 11.34 -24 12 C-23.56 11.61 -23.13 11.23 -22.68 10.83 C-9.14 -1.02 -9.14 -1.02 0 0 Z " fill="#CE3938" transform="translate(604,151)"/>
<path d="M0 0 C2.31 1.32 4.62 2.64 7 4 C8.32 2.68 9.64 1.36 11 0 C11.5 2.47 11.5 2.47 12 5 C12.66 5 13.32 5 14 5 C14 5.66 14 6.32 14 7 C17.47 5.51 17.47 5.51 21 4 C21 5.98 21 7.96 21 10 C23.31 10.66 25.62 11.32 28 12 C27.34 13.98 26.68 15.96 26 18 C28.64 18.99 31.28 19.98 34 21 C33.38 21.45 32.76 21.91 32.12 22.38 C29.94 23.97 29.94 23.97 28 26 C29.74 26.88 29.74 26.88 32 27 C37.82 23.04 42.34 17.95 46 12 C46.66 12 47.32 12 48 12 C48.33 11.01 48.66 10.02 49 9 C47.9 23.52 41.48 32.67 30.7 41.98 C22.16 48.28 11.41 50.05 1 49 C-11.93 46.98 -21.9 40.68 -30.62 31.12 C-33.18 27.35 -34.49 23.12 -35.88 18.81 C-36.22 17.76 -36.22 17.76 -36.56 16.69 C-38.44 10.45 -38.44 10.45 -37 7 C-35.96 8.56 -34.93 10.12 -34.03 11.76 C-30.75 17.56 -26.51 22.22 -21 26 C-18.33 26.76 -18.33 26.76 -16 27 C-16.33 25.68 -16.66 24.36 -17 23 C-18.32 22.67 -19.64 22.34 -21 22 C-21 21.34 -21 20.68 -21 20 C-17.53 19.5 -17.53 19.5 -14 19 C-14.77 17.61 -14.77 17.61 -15.56 16.19 C-17 13 -17 13 -16 10 C-13.03 10.5 -13.03 10.5 -10 11 C-10 9.02 -10 7.04 -10 5 C-7.39 4.07 -6.36 3.85 -3.75 4.94 C-3.17 5.29 -2.59 5.64 -2 6 C-1.34 4.02 -0.68 2.04 0 0 Z " fill="#091047" transform="translate(107,175)"/>
<path d="M0 0 C1.16 -0 2.32 -0 3.52 -0 C4.74 -0 5.96 0 7.22 0.01 C8.44 0 9.66 0 10.92 -0 C12.66 -0 12.66 -0 14.44 0 C15.51 0 16.58 0 17.69 0 C20.29 0.13 20.29 0.13 22.29 1.13 C22.29 26.54 22.29 51.95 22.29 78.13 C13.05 78.13 3.81 78.13 -5.71 78.13 C-5.87 68.11 -6.02 58.09 -6.16 48.07 C-6.22 43.41 -6.29 38.76 -6.36 34.11 C-6.43 29.62 -6.5 25.13 -6.56 20.65 C-6.58 18.93 -6.61 17.21 -6.64 15.5 C-6.67 13.1 -6.71 10.71 -6.74 8.31 C-6.75 7.6 -6.76 6.88 -6.78 6.14 C-6.79 4.47 -6.76 2.8 -6.71 1.13 C-4.94 -0.64 -2.4 0 0 0 Z " fill="#CF3A38" transform="translate(623.71484375,152.8671875)"/>
<path d="M0 0 C9.57 0.33 19.14 0.66 29 1 C29 8.59 29 16.18 29 24 C19.76 24 10.52 24 1 24 C0.67 16.08 0.34 8.16 0 0 Z " fill="#CF3A38" transform="translate(617,123)"/>
<path d="M0 0 C2.42 0.32 4.62 0.88 6.94 1.62 C9.16 2.16 9.16 2.16 12 1.44 C15.38 0.95 16.09 1.54 19 3 C20.98 2.13 20.98 2.13 23 1 C25.62 0.75 25.62 0.75 28 1 C30 3 30 3 30.25 6.19 C29.99 10.09 29.11 13.26 28 17 C27.57 19.66 27.28 22.32 27 25 C25.02 25 23.04 25 21 25 C19.87 18.77 20.3 14.08 22 8 C21.01 8.33 20.02 8.66 19 9 C16.71 14.21 15.28 19.47 14 25 C12.02 25 10.04 25 8 25 C6.87 20.9 7.22 18.24 8.44 14.19 C8.72 13.21 9.01 12.24 9.31 11.23 C9.54 10.49 9.76 9.76 10 9 C8 9.54 8 9.54 6 11 C4.64 14.08 4.64 14.08 3.75 17.62 C3.41 18.81 3.08 20 2.73 21.23 C2.49 22.14 2.25 23.06 2 24 C-0.38 24.19 -0.38 24.19 -3 24 C-5 21 -5 21 -4.79 18.84 C-4.49 17.62 -4.49 17.62 -4.19 16.38 C-3.22 12.17 -2.65 8.11 -2.34 3.81 C-2 2 -2 2 0 0 Z M6 3 C6 3.66 6 4.32 6 5 C6.66 4.67 7.32 4.34 8 4 C7.34 3.67 6.68 3.34 6 3 Z M11 7 C12 9 12 9 12 9 Z M-4 18 C-3 20 -3 20 -3 20 Z " fill="#CF3A38" transform="translate(909,262)"/>
<path d="M0 0 C2.62 0.94 2.62 0.94 5 2 C4.52 7.95 3.5 13.1 1.52 18.74 C0.95 21.23 1.18 22.61 2 25 C3.28 25.06 4.56 25.12 5.88 25.19 C6.59 25.22 7.31 25.26 8.05 25.29 C8.7 25.2 9.34 25.1 10 25 C12.26 21.61 12.77 18.61 13.44 14.69 C14.32 9.62 15.36 5.45 18 1 C20.06 0.06 20.06 0.06 22 0 C22.66 0.33 23.32 0.66 24 1 C22.76 22.67 22.76 22.67 16 30 C11.25 32.69 7.43 33.6 2 33 C-2.11 31.18 -4.89 28.98 -7 25 C-7.52 16.78 -5.36 8.47 -2 1 C-1.34 0.67 -0.68 0.34 0 0 Z M14 17 C15 19 15 19 15 19 Z M4 27 C4 27.33 4 27.66 4 28 C5.65 28 7.3 28 9 28 C9 27.67 9 27.34 9 27 C7.35 27 5.7 27 4 27 Z " fill="#CF3A38" transform="translate(475,254)"/>
<path d="M0 0 C2.5 1.38 2.5 1.38 4 4 C4.64 12.15 2.09 23.16 -2.28 30 C-4.99 32.65 -7.86 33.36 -11.5 33.62 C-16.41 33.38 -18.64 31.45 -22 28 C-21.67 26.68 -21.34 25.36 -21 24 C-16.25 24.75 -16.25 24.75 -14 27 C-11.4 26.68 -11.4 26.68 -9 26 C-8.67 25.01 -8.34 24.02 -8 23 C-9.07 22.94 -10.14 22.88 -11.25 22.81 C-15 22 -15 22 -17.5 19.88 C-19.51 16.02 -19.17 14.15 -18 10 C-14.24 2.62 -8.4 -1.27 0 0 Z M-7 5.62 C-9.64 7.44 -10.71 9.08 -12 12 C-11.79 14.74 -11.79 14.74 -11 17 C-8.56 16.9 -8.56 16.9 -6 16 C-4.53 13.71 -4.53 13.71 -3.69 10.94 C-3.36 10.02 -3.04 9.1 -2.7 8.15 C-2.47 7.44 -2.24 6.73 -2 6 C-4.83 4.73 -4.83 4.73 -7 5.62 Z M-18 14 C-17 17 -17 17 -17 17 Z " fill="#CF3A38" transform="translate(991,263)"/>
<path d="M0 0 C0.33 0.33 0.66 0.66 1 1 C0.91 3.19 0.75 5.38 0.56 7.56 C0.46 8.76 0.36 9.96 0.25 11.19 C0.17 12.12 0.09 13.05 0 14 C1.26 13.79 2.52 13.59 3.81 13.38 C7.4 12.79 7.75 12.83 11 15 C10.53 18.78 9.94 22.38 8.94 26.06 C8.04 29.44 7.91 32.49 8 36 C7 37 7 37 3.94 37.06 C2.97 37.04 2 37.02 1 37 C-0.28 34.45 0.03 32.95 0.31 30.12 C0.39 29.26 0.47 28.4 0.55 27.51 C1 25 1.74 23.2 3 21 C1.03 21.54 1.03 21.54 -1 23 C-2.57 26.08 -2.57 26.08 -3.75 29.62 C-4.18 30.81 -4.61 32 -5.05 33.23 C-5.36 34.14 -5.68 35.06 -6 36 C-7.98 36 -9.96 36 -12 36 C-14.52 28.39 -10.87 19.04 -8.72 11.62 C-8.01 9.05 -7.46 6.49 -6.94 3.88 C-6.63 2.6 -6.32 1.32 -6 0 C-3.5 -1.25 -2.6 -0.84 0 0 Z M-6 2 C-5 6 -5 6 -5 6 Z M-2 15 C-2 15.66 -2 16.32 -2 17 C-1.34 16.67 -0.68 16.34 0 16 C-0.66 15.67 -1.32 15.34 -2 15 Z M-10 20 C-9 22 -9 22 -9 22 Z M1 29 C2 31 2 31 2 31 Z " fill="#CF3A38" transform="translate(645,250)"/>
<path d="M0 0 C2.5 1.38 2.5 1.38 4 4 C4.64 12.15 2.09 23.16 -2.28 30 C-4.99 32.65 -7.86 33.36 -11.5 33.62 C-16.41 33.38 -18.64 31.45 -22 28 C-21.67 26.68 -21.34 25.36 -21 24 C-16.25 24.75 -16.25 24.75 -14 27 C-11.45 26.99 -11.45 26.99 -9 26 C-7.64 24.03 -7.64 24.03 -7 22 C-8.26 22.06 -9.52 22.12 -10.81 22.19 C-13.43 22.32 -14.58 22.3 -16.73 20.76 C-19.09 17.48 -18.58 13.85 -18 10 C-14.49 2.57 -8.22 -1.24 0 0 Z M-7 5.62 C-9.64 7.44 -10.71 9.08 -12 12 C-11.79 14.74 -11.79 14.74 -11 17 C-8.56 16.9 -8.56 16.9 -6 16 C-4.53 13.71 -4.53 13.71 -3.69 10.94 C-3.36 10.02 -3.04 9.1 -2.7 8.15 C-2.47 7.44 -2.24 6.73 -2 6 C-4.83 4.73 -4.83 4.73 -7 5.62 Z " fill="#CF3A38" transform="translate(727,263)"/>
<path d="M0 0 C3.44 0.35 5.07 1.05 8 3 C8.56 2.67 9.11 2.34 9.69 2 C12.35 0.85 14.12 0.7 17 1 C19 3 19 3 19.22 6.13 C18.99 10.2 18.37 13.97 17.5 17.94 C17.29 18.96 17.29 18.96 17.07 20.01 C16.72 21.67 16.36 23.34 16 25 C14.02 25 12.04 25 10 25 C7.78 20.7 8.06 18.28 9.38 13.69 C9.67 12.62 9.97 11.55 10.27 10.45 C10.51 9.64 10.75 8.83 11 8 C5.72 12.38 3.58 17.74 1 24 C-0.65 24 -2.3 24 -4 24 C-5.33 18.43 -4.61 14.81 -2.69 9.43 C-1.87 6.99 -1.87 6.99 -2.03 4.32 C-2 2 -2 2 0 0 Z M12 7 C13 10 13 10 13 10 Z " fill="#CF3A38" transform="translate(684,262)"/>
<path d="M0 0 C3.44 0.35 5.07 1.05 8 3 C8.56 2.67 9.11 2.34 9.69 2 C12.35 0.85 14.12 0.7 17 1 C19 3 19 3 19.25 6.19 C18.99 10.09 18.11 13.26 17 17 C16.57 19.66 16.28 22.32 16 25 C14.02 25 12.04 25 10 25 C8.93 18.73 9.12 14.09 11 8 C5.72 12.38 3.58 17.74 1 24 C-0.65 24 -2.3 24 -4 24 C-5.15 19.84 -4.75 17.12 -3.56 13 C-2.69 9.95 -2 7.43 -2.03 4.25 C-2 2 -2 2 0 0 Z M12 7 C13 9 13 9 13 9 Z " fill="#CF3A38" transform="translate(508,262)"/>
<path d="M0 0 C3.44 0.35 5.07 1.05 8 3 C8.56 2.67 9.11 2.34 9.69 2 C12.35 0.85 14.12 0.7 17 1 C19 3 19 3 19.22 6.13 C18.99 10.2 18.37 13.97 17.5 17.94 C17.29 18.96 17.29 18.96 17.07 20.01 C16.72 21.67 16.36 23.34 16 25 C14.02 25 12.04 25 10 25 C8.93 18.73 9.12 14.09 11 8 C5.72 12.38 3.58 17.74 1 24 C-0.65 24 -2.3 24 -4 24 C-5.58 18.69 -4.31 14.79 -2.69 9.68 C-1.88 7.02 -1.88 7.02 -2.03 4.29 C-2 2 -2 2 0 0 Z M12 7 C13 10 13 10 13 10 Z " fill="#CF3A38" transform="translate(1023,262)"/>
<path d="M0 0 C3.36 0.45 6.04 1.36 9 3 C9.99 2.34 10.98 1.68 12 1 C14.56 0.75 14.56 0.75 17 1 C19 3 19 3 19.05 4.96 C18.95 5.76 18.85 6.55 18.75 7.38 C18.64 8.26 18.54 9.14 18.43 10.05 C17.7 15.05 16.88 20.03 16 25 C14.02 25 12.04 25 10 25 C8.93 18.73 9.12 14.09 11 8 C5.72 12.38 3.58 17.74 1 24 C-0.65 24 -2.3 24 -4 24 C-5.19 19.73 -4.71 16.76 -3.62 12.5 C-3.35 11.4 -3.07 10.29 -2.79 9.16 C-2.4 7.59 -2.4 7.59 -2 6 C-1.82 5.06 -1.64 4.12 -1.46 3.16 C-1 1 -1 1 0 0 Z M12 7 C13 9 13 9 13 9 Z " fill="#CE3938" transform="translate(1151,262)"/>
<path d="M0 0 C2.94 1.99 3.8 3.11 4.56 6.56 C4 9 4 9 2.12 10.56 C-9.7 16 -9.7 16 -13 16 C-13 16.66 -13 17.32 -13 18 C-8.22 17.53 -4.96 16.76 -1 14 C-0.01 14.66 0.98 15.32 2 16 C1.62 18.75 1.22 19.8 -0.88 21.69 C-4.92 24.19 -8.32 24.32 -13 24 C-16.54 22.35 -17.81 21.28 -20 18 C-19.77 11.82 -17.91 7.81 -13.46 3.52 C-8.96 -0.14 -5.73 -0.85 0 0 Z M-9 8 C-8.67 8.66 -8.34 9.32 -8 10 C-4.27 8.88 -4.27 8.88 -2 6 C-4.65 6 -6.58 6.98 -9 8 Z " fill="#CF3A38" transform="translate(570,263)"/>
<path d="M0 0 C2.48 0.99 2.48 0.99 5 2 C5.33 5.63 5.66 9.26 6 13 C9.35 9.78 12.28 6.3 15.22 2.71 C17.18 0.82 18.29 0.19 21 0 C21.66 0.66 22.32 1.32 23 2 C22.66 5.14 21.54 6.85 19.38 9.09 C18.86 9.65 18.33 10.2 17.79 10.78 C17.24 11.35 16.69 11.91 16.12 12.5 C9.49 18.98 9.49 18.98 5.81 27.25 C5.54 28.49 5.28 29.73 5 31 C3.35 31.33 1.7 31.66 0 32 C-2.37 28.45 -2.11 27.42 -1.62 23.31 C-1.51 22.32 -1.4 21.32 -1.29 20.3 C-1.19 19.54 -1.1 18.78 -1 18 C-1.33 18 -1.66 18 -2 18 C-2.25 15.56 -2.47 13.13 -2.69 10.69 C-2.8 9.65 -2.8 9.65 -2.91 8.6 C-3.33 3.44 -3.33 3.44 -1.52 1.02 C-1.02 0.68 -0.52 0.35 0 0 Z M-2 3 C-1 7 -1 7 -1 7 Z M-1 25 C0 27 0 27 0 27 Z " fill="#CF3A38" transform="translate(758,254)"/>
<path d="M0 0 C2.48 0.99 2.48 0.99 5 2 C4.38 5.94 3.14 9.37 1.62 13.04 C0.8 15.29 0.8 15.29 1 19 C2.98 18.67 4.96 18.34 7 18 C7.16 16.94 7.32 15.88 7.48 14.79 C7.71 13.4 7.95 12.01 8.19 10.62 C8.29 9.93 8.39 9.23 8.49 8.51 C8.86 6.48 8.86 6.48 10 3 C12.43 1.46 12.43 1.46 15 1 C15.99 1.33 16.98 1.66 18 2 C14.66 22.34 14.66 22.34 12 25 C10.33 25.05 8.67 25.04 7 25 C5.68 25 4.36 25 3 25 C-3.4 24.44 -3.4 24.44 -5.71 22.74 C-7.87 19.81 -7.1 17.24 -6.66 13.78 C-5.55 9.11 -3.47 3.47 0 0 Z " fill="#CE3937" transform="translate(819,262)"/>
<path d="M0 0 C3.77 3.19 5.83 5.24 6.31 10.19 C5.94 14.73 4.83 17.47 2 21 C-1.04 23.58 -3.09 24.83 -7 25.56 C-11.23 24.77 -12.93 23 -16 20 C-17.59 16.83 -17.34 14.52 -17 11 C-15.15 6.64 -12.99 3.67 -9.06 1 C-5.67 -0.11 -3.53 -0.6 0 0 Z M-6.56 7 C-9.73 10.9 -9.83 13.05 -10 18 C-8.95 19.26 -8.95 19.26 -6.56 19.25 C-5.72 19.17 -4.87 19.08 -4 19 C-1.72 15.58 -1.78 14.32 -1.88 10.31 C-1.9 8.82 -1.9 8.82 -1.93 7.3 C-1.95 6.54 -1.98 5.78 -2 5 C-4.28 4.79 -4.28 4.79 -6.56 7 Z M-1 7 C-1 8.98 -1 10.96 -1 13 C-0.67 13 -0.34 13 0 13 C0 11.02 0 9.04 0 7 C-0.33 7 -0.66 7 -1 7 Z " fill="#CF3A38" transform="translate(1135,262)"/>
<path d="M0 0 C3.43 2.51 4.77 4.23 6 8.31 C6 12.78 5.22 16.12 3 20 C-0.09 22.94 -2.51 24.8 -6.75 25.38 C-11.28 24.85 -12.77 23.16 -16 20 C-17.59 16.83 -17.34 14.52 -17 11 C-15.15 6.64 -12.99 3.67 -9.06 1 C-5.67 -0.11 -3.53 -0.6 0 0 Z M-6.56 7 C-9.73 10.9 -9.83 13.05 -10 18 C-8.93 19.3 -8.93 19.3 -6.44 19.06 C-5.63 19.04 -4.83 19.02 -4 19 C-1.6 14.35 -1.8 10.09 -2 5 C-4.28 4.79 -4.28 4.79 -6.56 7 Z M-1 7 C-1 8.65 -1 10.3 -1 12 C-0.67 12 -0.34 12 0 12 C0 10.35 0 8.7 0 7 C-0.33 7 -0.66 7 -1 7 Z " fill="#CF3A38" transform="translate(801,262)"/>
<path d="M0 0 C0.99 0.66 1.98 1.32 3 2 C2.75 3.88 2.75 3.88 2 6 C1.06 6.31 1.06 6.31 0.09 6.62 C-3.28 8.84 -3.46 12.4 -4.25 16.12 C-4.42 16.88 -4.6 17.63 -4.77 18.41 C-5.2 20.27 -5.6 22.13 -6 24 C-4.68 24.99 -3.36 25.98 -2 27 C-2.33 28.32 -2.66 29.64 -3 31 C-7.95 31.66 -12.9 32.32 -18 33 C-18.66 31.35 -19.32 29.7 -20 28 C-18.83 27.51 -18.83 27.51 -17.64 27.01 C-13.9 24.16 -13.59 21.28 -12.69 16.81 C-12.52 16.06 -12.35 15.31 -12.18 14.54 C-11.77 12.7 -11.38 10.85 -11 9 C-11.66 8.57 -12.32 8.13 -13 7.69 C-13.66 7.13 -14.32 6.57 -15 6 C-15 5.01 -15 4.02 -15 3 C-5.28 -0.63 -5.28 -0.63 0 0 Z " fill="#CF3A38" transform="translate(900,254)"/>
<path d="M0 0 C3.44 1.94 3.44 1.94 6 5 C6.35 8.15 5.72 10.94 5 14 C4.82 14.85 4.65 15.7 4.46 16.58 C4.01 18.73 3.52 20.87 3 23 C1.33 23.04 -0.33 23.04 -2 23 C-2.33 22.67 -2.66 22.34 -3 22 C-4.61 22.06 -6.21 22.15 -7.81 22.25 C-12.63 22.28 -12.63 22.28 -15.69 20 C-17.41 16.06 -17.22 13.02 -16 9 C-12.65 2.42 -7.57 -1.26 0 0 Z M-3 5 C-6.83 6.45 -8.28 8.31 -10 12 C-10.25 14.71 -10.25 14.71 -10 17 C-7.32 17.22 -5.58 17.35 -3.25 15.94 C-1.38 13.04 -1.19 10.4 -1 7 C-1.66 6.34 -2.32 5.68 -3 5 Z " fill="#CE3938" transform="translate(1064,263)"/>
<path d="M0 0 C5.01 2.85 5.01 2.85 6.75 5.56 C7.03 11.58 5.16 17.76 3.75 23.56 C2.08 23.61 0.42 23.6 -1.25 23.56 C-1.58 23.23 -1.91 22.9 -2.25 22.56 C-4.77 22.57 -7.28 22.7 -9.8 22.82 C-12.25 22.56 -12.25 22.56 -14.04 21.32 C-16.31 18.01 -15.82 14.4 -15.25 10.56 C-12.49 4.59 -6.91 -0.93 0 0 Z M-4.19 6.12 C-7.08 8.14 -7.95 10.32 -9.25 13.56 C-9.25 14.88 -9.25 16.2 -9.25 17.56 C-6.33 17.81 -6.33 17.81 -3.25 17.56 C-1.32 14.66 -0.95 13.67 -0.62 10.38 C-0.5 9.12 -0.38 7.86 -0.25 6.56 C-2.19 5.31 -2.19 5.31 -4.19 6.12 Z " fill="#CF3A38" transform="translate(960.25,262.4375)"/>
<path d="M0 0 C2.12 0.38 2.12 0.38 4 1 C4 3.31 4 5.62 4 8 C6.97 8.5 6.97 8.5 10 9 C10 10.32 10 11.64 10 13 C8 14 8 14 2 14 C1.34 17.96 0.68 21.92 0 26 C1.65 25.01 3.3 24.02 5 23 C5.66 22.67 6.32 22.34 7 22 C7.66 22.33 8.32 22.66 9 23 C9.31 25.25 9.31 25.25 9 28 C6.89 30.44 5.24 31.76 2.03 32.39 C-1.31 32.57 -3.65 32.2 -6.56 30.56 C-8.77 26.63 -7.84 23.29 -7 19 C-6.81 17.99 -6.63 16.98 -6.44 15.94 C-6.22 14.98 -6.22 14.98 -6 14 C-6.66 14 -7.32 14 -8 14 C-8 12.68 -8 11.36 -8 10 C-6.68 9.67 -5.36 9.34 -4 9 C-3.57 7.33 -3.57 7.33 -3.12 5.62 C-2 2 -2 2 0 0 Z M-3 7 C-2 9 -2 9 -2 9 Z M-6 19 C-5 21 -5 21 -5 21 Z " fill="#CF3A38" transform="translate(1085,255)"/>
<path d="M0 0 C3 1.81 3 1.81 5 5 C5.37 11.18 3.94 17.17 2 23 C0.33 23.04 -1.33 23.04 -3 23 C-3.33 22.67 -3.66 22.34 -4 22 C-5.63 22.06 -7.25 22.15 -8.88 22.25 C-13.69 22.27 -13.69 22.27 -16.19 20.06 C-17.47 15.23 -17.48 10.6 -14.95 6.16 C-10.64 0.71 -6.89 -0.85 0 0 Z M-9 9 C-11.01 12.06 -11 13.14 -11 17 C-8.13 17.42 -8.13 17.42 -5 17 C-2.3 14.03 -2.01 12.21 -1.81 8.19 C-1.87 7.14 -1.94 6.08 -2 5 C-5.2 5 -6.69 6.92 -9 9 Z " fill="#CF3A38" transform="translate(596,263)"/>
<path d="M0 0 C0.66 0.33 1.32 0.66 2 1 C2 2.98 2 4.96 2 7 C1.06 6.87 1.06 6.87 0.1 6.75 C-1.12 6.59 -1.12 6.59 -2.38 6.44 C-3.19 6.33 -4 6.23 -4.84 6.12 C-7.05 5.82 -7.05 5.82 -9 7 C-8.01 7.66 -7.02 8.32 -6 9 C-6 9.66 -6 10.32 -6 11 C-5.36 11.31 -4.72 11.62 -4.06 11.94 C-2 13 -2 13 -1 14 C-0.69 17.38 -0.69 17.38 -1 21 C-3.82 23.79 -6.02 24.45 -9.94 24.5 C-13.91 24.39 -14.82 24.14 -18.12 21.62 C-20 19 -20 19 -20 17 C-16.7 15.88 -14.95 16.1 -11.75 17.44 C-10.69 17.87 -10.69 17.87 -9.61 18.31 C-9.08 18.54 -8.55 18.76 -8 19 C-8.32 17.05 -8.32 17.05 -9 15 C-11.38 13.39 -11.38 13.39 -14 12 C-15.88 10.62 -15.88 10.62 -17 9 C-17 5.67 -16.22 4.27 -14.12 1.69 C-9.54 -0.79 -5.12 -0.5 0 0 Z " fill="#CF3A38" transform="translate(626,263)"/>
<path d="M0 0 C4.56 0.56 4.56 0.56 6 2 C5.5 9.51 3.8 16.64 2 23.94 C1.59 25.64 1.59 25.64 1.17 27.38 C-0.86 35.71 -0.86 35.71 -2 38 C-4.38 37.69 -4.38 37.69 -7 37 C-9 34 -9 34 -8.69 31.58 C-8.44 30.64 -8.18 29.71 -7.92 28.74 C-7.51 27.18 -7.51 27.18 -7.09 25.6 C-6.64 23.97 -6.64 23.97 -6.19 22.31 C-3.85 13.93 -3.85 13.93 -2.43 5.36 C-2 2 -2 2 0 0 Z M-1 2 C-1 3.65 -1 5.3 -1 7 C-0.67 7 -0.34 7 0 7 C0 5.35 0 3.7 0 2 C-0.33 2 -0.66 2 -1 2 Z M-3 13 C-2 15 -2 15 -2 15 Z M-5 21 C-4 23 -4 23 -4 23 Z " fill="#CF3A38" transform="translate(541,249)"/>
<path d="M0 0 C4.09 1.07 6.69 0.65 10.81 0 C11.47 0.66 12.13 1.32 12.81 2 C12.44 4.62 12.44 4.62 11.81 7 C9.05 7.6 6.65 8 3.81 8 C1 10.91 0.09 13.88 -0.88 17.75 C-1.13 18.73 -1.38 19.72 -1.64 20.73 C-1.82 21.48 -2 22.23 -2.19 23 C-4.17 23 -6.15 23 -8.19 23 C-9.26 19.02 -9.03 16.54 -7.81 12.62 C-6.84 9.36 -6 6.27 -5.62 2.88 C-5.41 1.45 -5.41 1.45 -5.19 0 C-3.19 -1 -3.19 -1 0 0 Z M-6.19 10 C-5.19 12 -5.19 12 -5.19 12 Z M-8.19 18 C-7.19 20 -7.19 20 -7.19 20 Z " fill="#CF3A38" transform="translate(850.1875,263)"/>
<path d="M0 0 C2.31 0.66 4.62 1.32 7 2 C6.36 9.53 4.8 16.67 3 24 C1.35 24 -0.3 24 -2 24 C-3.5 22.04 -4.07 20.59 -3.79 18.12 C-3.29 15.88 -2.73 13.66 -2.12 11.44 C-0.56 5.8 -0.56 5.8 0 0 Z " fill="#CF3A38" transform="translate(1105,262)"/>
<path d="M0 0 C2.31 0.33 4.62 0.66 7 1 C6.51 8.59 5 15.67 3 23 C1.35 23 -0.3 23 -2 23 C-3.2 19.46 -2.81 16.83 -2.12 13.19 C-1.84 11.61 -1.84 11.61 -1.55 10 C-1.37 9.01 -1.19 8.02 -1 7 C-0.64 4.67 -0.32 2.34 0 0 Z " fill="#CF3A38" transform="translate(666,263)"/>
<path d="M0 0 C2.31 0.33 4.62 0.66 7 1 C6.57 8.67 5.26 15.66 3 23 C1.35 23 -0.3 23 -2 23 C-3.2 19.46 -2.81 16.83 -2.12 13.19 C-1.84 11.61 -1.84 11.61 -1.55 10 C-1.37 9.01 -1.19 8.02 -1 7 C-0.64 4.67 -0.32 2.34 0 0 Z " fill="#CF3A38" transform="translate(1005,263)"/>
<path d="M0 0 C0.33 0 0.66 0 1 0 C1 24.42 1 48.84 1 74 C0.67 74 0.34 74 0 74 C0 49.58 0 25.16 0 0 Z " fill="#CF3A38" transform="translate(930,155)"/>
<path d="M0 0 C0.33 0 0.66 0 1 0 C1 24.42 1 48.84 1 74 C0.67 74 0.34 74 0 74 C0 49.58 0 25.16 0 0 Z " fill="#CF3A38" transform="translate(616,155)"/>
<path d="M0 0 C0.33 0.66 0.66 1.32 1 2 C3.02 2.65 3.02 2.65 5 3 C4.67 4.65 4.34 6.3 4 8 C2.02 8 0.04 8 -2 8 C-2.66 6.68 -3.32 5.36 -4 4 C-2.68 2.68 -1.36 1.36 0 0 Z " fill="#CF3A38" transform="translate(1010,253)"/>
<path d="M0 0 C0.33 0.66 0.66 1.32 1 2 C3.02 2.65 3.02 2.65 5 3 C4.67 4.65 4.34 6.3 4 8 C2.02 8 0.04 8 -2 8 C-2.66 6.68 -3.32 5.36 -4 4 C-2.68 2.68 -1.36 1.36 0 0 Z " fill="#CF3A38" transform="translate(671,253)"/>
<path d="M0 0 C5.75 0.75 5.75 0.75 8 3 C7.62 5.12 7.62 5.12 7 7 C4.12 7.19 4.12 7.19 1 7 C-1 4 -1 4 -0.62 1.81 C-0.42 1.21 -0.21 0.62 0 0 Z " fill="#CF3A38" transform="translate(1107,254)"/>
<path d="M0 0 C15.51 0 31.02 0 47 0 C47 0.33 47 0.66 47 1 C31.49 1 15.98 1 0 1 C0 0.67 0 0.34 0 0 Z " fill="#CF3A38" transform="translate(461,125)"/>
<path d="M0 0 C0.33 0 0.66 0 1 0 C1 10.56 1 21.12 1 32 C0.67 32 0.34 32 0 32 C0 21.44 0 10.88 0 0 Z " fill="#CF3A38" transform="translate(761,178)"/>
<path d="M0 0 C8.25 0 16.5 0 25 0 C25 0.33 25 0.66 25 1 C16.75 1 8.5 1 0 1 C0 0.67 0 0.34 0 0 Z " fill="#CF3A38" transform="translate(764,128)"/>
<path d="M0 0 C7.59 0 15.18 0 23 0 C23 0.33 23 0.66 23 1 C15.41 1 7.82 1 0 1 C0 0.67 0 0.34 0 0 Z " fill="#CF3A38" transform="translate(619,122)"/>
<path d="M0 0 C0.33 0 0.66 0 1 0 C1 6.93 1 13.86 1 21 C0.67 21 0.34 21 0 21 C0 14.07 0 7.14 0 0 Z " fill="#CF3A38" transform="translate(761,131)"/>
<path d="M0 0 C0.33 0 0.66 0 1 0 C1 6.6 1 13.2 1 20 C0.67 20 0.34 20 0 20 C0 13.4 0 6.8 0 0 Z " fill="#CF3A38" transform="translate(616,125)"/>
<path d="M0 0 C0.33 0 0.66 0 1 0 C1 1.65 1 3.3 1 5 C0.67 5 0.34 5 0 5 C0 3.35 0 1.7 0 0 Z " fill="#CF3A38" transform="translate(944,275)"/>
<path d="M0 0 C4 1 4 1 4 1 Z " fill="#CF3A38" transform="translate(620,262)"/>
<path d="" fill="#CF3A38" transform="translate(0,0)"/>
<path d="" fill="#CF3A38" transform="translate(0,0)"/>
<path d="" fill="#CF3A38" transform="translate(0,0)"/>
<path d="" fill="#CF3A38" transform="translate(0,0)"/>
<path d="" fill="#CF3A38" transform="translate(0,0)"/>
<path d="" fill="#CF3A38" transform="translate(0,0)"/>
<path d="" fill="#CF3A38" transform="translate(0,0)"/>
<path d="" fill="#CF3A38" transform="translate(0,0)"/>
<path d="" fill="#CF3A38" transform="translate(0,0)"/>
<path d="" fill="#CF3A38" transform="translate(0,0)"/>
<path d="" fill="#CF3A38" transform="translate(0,0)"/>
<path d="" fill="#CF3A38" transform="translate(0,0)"/>
<path d="" fill="#CF3A38" transform="translate(0,0)"/>
<path d="" fill="#CF3A38" transform="translate(0,0)"/>
<path d="" fill="#000002" transform="translate(0,0)"/>
<path d="" fill="#000002" transform="translate(0,0)"/>
<path d="" fill="#091048" transform="translate(0,0)"/>
<path d="" fill="#091048" transform="translate(0,0)"/>
<path d="" fill="#091048" transform="translate(0,0)"/>
<path d="" fill="#091048" transform="translate(0,0)"/>
<path d="" fill="#091048" transform="translate(0,0)"/>
<path d="" fill="#091048" transform="translate(0,0)"/>
<path d="" fill="#091048" transform="translate(0,0)"/>
<path d="" fill="#091048" transform="translate(0,0)"/>
<path d="" fill="#091048" transform="translate(0,0)"/>
<path d="" fill="#091048" transform="translate(0,0)"/>
<path d="" fill="#091048" transform="translate(0,0)"/>
<path d="" fill="#091048" transform="translate(0,0)"/>
<path d="" fill="#091048" transform="translate(0,0)"/>
</svg>
